# xmcd
#
# Track frame offsets: 
#        150
#        29405
#        51520
#        72602
#        100045
#        136352
#        162617
#        191195
#        227025
#
# Disc length: 3504 seconds
#
# Revision: 2
# Processed by: cddbd v1.5.1PL2 Copyright (c) Steve Scherf et al.
# Submitted via: ExactAudioCopy v0.95a5
#
DISCID=880dae09
DTITLE=Grant Green - Born To Be Blue
DYEAR=1900
DGENRE=Jazz
TTITLE0=Someday My Prince Will Come
TTITLE1=Born To Be Blue
TTITLE2=Born To Be Blue (alt tk)
TTITLE3=If I Should Lose You
TTITLE4=Back In Your Own Back Yard
TTITLE5=My One and Only Love
TTITLE6=Count Every Star
TTITLE7=Cool Blues
TTITLE8=Outer Space
EXTD=
EXTT0=
EXTT1=
EXTT2=
EXTT3=
EXTT4=
EXTT5=
EXTT6=
EXTT7=
EXTT8=
PLAYORDER=
